<svg width="40" height="41" viewBox="0 0 40 41" fill="none" xmlns="http://www.w3.org/2000/svg">
<mask id="mask0_654_2162" style="mask-type:alpha" maskUnits="userSpaceOnUse" x="0" y="0" width="40" height="41">
<rect y="0.121338" width="40" height="40" fill="#D9D9D9"/>
</mask>
<g mask="url(#mask0_654_2162)">
<path d="M18.1073 16.9805L4.77397 8.26217V25.7622C4.77397 26.0613 4.87008 26.3072 5.0623 26.4997C5.25452 26.6919 5.50022 26.788 5.79938 26.788H22.6586V28.4547H5.79938C5.03244 28.4547 4.39202 28.1977 3.87813 27.6838C3.36424 27.1699 3.1073 26.5294 3.1073 25.7622V7.81384C3.1073 7.04662 3.36424 6.40606 3.87813 5.89217C4.39202 5.37828 5.03244 5.12134 5.79938 5.12134H30.4148C31.182 5.12134 31.8226 5.37828 32.3365 5.89217C32.8504 6.40606 33.1073 7.04662 33.1073 7.81384V15.7622H31.4406V8.26217L18.1073 16.9805ZM18.1073 15.1213L30.9277 6.788H5.28647L18.1073 15.1213ZM31.4406 35.0572C29.9276 35.0572 28.6412 34.5273 27.5815 33.4676C26.5217 32.4076 25.9919 31.1212 25.9919 29.6084V22.1084C25.9919 21.2195 26.2931 20.4738 26.8956 19.8713C27.4981 19.2688 28.2438 18.9676 29.1327 18.9676C30.0216 18.9676 30.7673 19.2688 31.3698 19.8713C31.9726 20.4738 32.274 21.2195 32.274 22.1084V29.6084H30.6073V22.1084C30.6073 21.694 30.4651 21.3447 30.1806 21.0605C29.8965 20.7763 29.5472 20.6343 29.1327 20.6343C28.7183 20.6343 28.369 20.7763 28.0848 21.0605C27.8006 21.3447 27.6586 21.694 27.6586 22.1084V29.6084C27.6586 30.6534 28.0276 31.545 28.7656 32.283C29.504 33.0213 30.3956 33.3905 31.4406 33.3905C32.4854 33.3905 33.3769 33.0213 34.1152 32.283C34.8533 31.545 35.2223 30.6534 35.2223 29.6084V22.9418H36.889V29.6084C36.889 31.1212 36.3591 32.4076 35.2994 33.4676C34.2397 34.5273 32.9534 35.0572 31.4406 35.0572ZM4.77397 8.26217V6.788V26.788V8.26217Z" fill="white"/>
</g>
</svg>
