<svg width="40" height="41" viewBox="0 0 40 41" fill="none" xmlns="http://www.w3.org/2000/svg">
<mask id="mask0_654_2159" style="mask-type:alpha" maskUnits="userSpaceOnUse" x="0" y="0" width="40" height="41">
<rect y="0.121338" width="40" height="40" fill="#D9D9D9"/>
</mask>
<g mask="url(#mask0_654_2159)">
<path d="M20.0001 37.8486C16.8233 37.8486 14.2236 37.4432 12.2011 36.6323C10.1782 35.8218 9.16673 34.7752 9.16673 33.4926C9.16673 32.8813 9.45529 32.296 10.0324 31.7366C10.6092 31.1776 11.4002 30.7022 12.4054 30.3106L13.9546 31.6253C13.4067 31.8321 12.8404 32.1061 12.2557 32.4472C11.671 32.7879 11.3055 33.1238 11.1591 33.4547C11.384 34.1063 12.3373 34.6733 14.0191 35.1555C15.7009 35.6378 17.6883 35.8789 19.9814 35.8789C22.2741 35.8789 24.2696 35.6378 25.9678 35.1555C27.666 34.6733 28.6275 34.1063 28.8524 33.4547C28.749 33.1162 28.3714 32.7766 27.7198 32.4359C27.0682 32.0948 26.452 31.8207 25.8712 31.6135L27.4091 30.2879C28.5052 30.6871 29.3499 31.1662 29.9431 31.7253C30.5366 32.2847 30.8334 32.868 30.8334 33.4754C30.8334 34.7632 29.822 35.8141 27.7991 36.6279C25.7765 37.4417 23.1769 37.8486 20.0001 37.8486ZM20.0493 29.4774C23.3246 26.9292 25.7765 24.4363 27.4051 21.9984C29.0341 19.5603 29.8486 17.1643 29.8486 14.8105C29.8486 11.3622 28.7879 8.75895 26.6665 7.00067C24.5455 5.24272 22.3296 4.36374 20.0188 4.36374C17.7083 4.36374 15.4862 5.2437 13.3523 7.00363C11.2185 8.76355 10.1516 11.3696 10.1516 14.8218C10.1516 17.0896 10.9621 19.4326 12.5832 21.8507C14.2046 24.2685 16.6933 26.8107 20.0493 29.4774ZM20.0001 31.9395C16.0324 28.9265 13.0708 26.0004 11.1153 23.161C9.15968 20.3217 8.18188 17.5404 8.18188 14.8169C8.18188 12.7599 8.53725 10.9604 9.24798 9.41848C9.95904 7.87686 10.8827 6.58457 12.0189 5.54162C13.1554 4.49866 14.4263 3.71341 15.8317 3.18586C17.2371 2.65798 18.6285 2.39404 20.006 2.39404C21.3835 2.39404 22.7729 2.65798 24.1743 3.18586C25.5758 3.71341 26.8448 4.49866 27.9813 5.54162C29.1175 6.58457 30.0411 7.87801 30.7522 9.42192C31.4629 10.9655 31.8183 12.7617 31.8183 14.8105C31.8183 17.5349 30.8405 20.3173 28.8849 23.1576C26.9293 25.9979 23.9677 28.9252 20.0001 31.9395ZM20.0188 17.735C20.8877 17.735 21.6321 17.4314 22.2519 16.824C22.872 16.2167 23.1821 15.4661 23.1821 14.5722C23.1821 13.6783 22.8704 12.9213 22.247 12.3011C21.6239 11.6813 20.8749 11.3714 20.0001 11.3714C19.1439 11.3714 18.3995 11.683 17.7669 12.306C17.1343 12.9291 16.818 13.6781 16.818 14.553C16.818 15.4597 17.1343 16.2167 17.7669 16.824C18.3995 17.4314 19.1501 17.735 20.0188 17.735Z" fill="white"/>
</g>
</svg>
