<svg width="37" height="31" viewBox="0 0 37 31" fill="none" xmlns="http://www.w3.org/2000/svg">
<path d="M0.866333 22.6213V12.6213H2.533V22.6213H0.866333ZM5.48175 17.6213V7.62134H7.14842V17.6213H5.48175ZM12.7893 30.1213C12.0223 30.1213 11.3819 29.8644 10.868 29.3505C10.3541 28.8366 10.0972 28.1961 10.0972 27.4288V2.81384C10.0972 2.04662 10.3541 1.40606 10.868 0.892171C11.3819 0.378282 12.0223 0.121338 12.7893 0.121338H24.7126C25.4795 0.121338 26.1199 0.378282 26.6338 0.892171C27.1477 1.40606 27.4047 2.04662 27.4047 2.81384V27.4288C27.4047 28.1961 27.1477 28.8366 26.6338 29.3505C26.1199 29.8644 25.4795 30.1213 24.7126 30.1213H12.7893ZM25.738 25.9547H11.7638V27.4288C11.7638 27.6855 11.8706 27.9206 12.0843 28.1343C12.2979 28.3479 12.5329 28.4547 12.7893 28.4547H24.7126C24.969 28.4547 25.204 28.3479 25.4176 28.1343C25.6312 27.9206 25.738 27.6855 25.738 27.4288V25.9547ZM11.7638 24.288H25.738V5.95467H11.7638V24.288ZM11.7638 4.288H25.738V2.81384C25.738 2.55717 25.6312 2.32203 25.4176 2.10842C25.204 1.89481 24.969 1.788 24.7126 1.788H12.7893C12.5329 1.788 12.2979 1.89481 12.0843 2.10842C11.8706 2.32203 11.7638 2.55717 11.7638 2.81384V4.288ZM30.3534 22.6213V12.6213H32.0201V22.6213H30.3534ZM34.9688 17.6213V7.62134H36.6355V17.6213H34.9688Z" fill="white"/>
</svg>
