<svg width="23" height="42" viewBox="0 0 23 42" fill="none" xmlns="http://www.w3.org/2000/svg">
<g opacity="0.2">
<path d="M16.9189 3.26895C16.0435 2.19765 13.7174 0.984985 11.3913 0.984985C9.06513 0.984985 6.739 2.19765 5.86361 3.26895C3.95906 5.605 5.15932 10.4606 5.15932 10.4606C6.739 7.86665 16.0435 7.86665 17.6232 10.4606C17.6232 10.4606 18.8235 5.605 16.9189 3.26895Z" fill="#EFEFEF"/>
<path d="M13.2726 21.6269C16.3923 25.6666 20.7321 31.353 22.6341 33.751C22.6355 33.751 22.6411 33.751 22.6411 33.751L17.3225 41.3284C17.3225 41.3284 16.9651 40.1789 14.8523 37.3022C12.7369 34.4256 5.96933 25.2054 4.27805 21.3988C2.58677 17.5922 1.06413 14.2939 2.16271 10.2319C3.2613 6.17479 5.79822 3.38245 5.79822 3.38245C5.79822 3.38245 4.52852 6.20207 6.2942 10.3236C8.34258 15.1048 11.0729 18.7775 13.2726 21.6269Z" fill="#D0D0D0"/>
<path d="M9.44495 21.6269C6.32526 25.6666 1.98547 31.353 0.0834047 33.751C0.0820138 33.751 0.0764239 33.751 0.0764239 33.751L5.395 41.3284C5.395 41.3284 5.75241 40.1789 7.86527 37.3022C9.98061 34.4256 16.7482 25.2054 18.4395 21.3988C20.1308 17.5922 21.6534 14.2939 20.5548 10.2319C19.4562 6.17479 16.9193 3.38245 16.9193 3.38245C16.9193 3.38245 18.189 6.20207 16.4233 10.3236C14.375 15.1048 11.6446 18.7775 9.44495 21.6269Z" fill="#D6D6D6"/>
</g>
</svg>
